<svg
  width="100%"
  height="100%"
  viewBox="0 0 1024 1024"
  xmlns="http://www.w3.org/2000/svg"
  fill="none"
>
  <defs>
    <radialGradient id="a" cx="0" cy="0" r="1" gradientTransform="rotate(120 109.526 402.669)scale(370.961)" gradientUnits="userSpaceOnUse">
      <stop offset=".154" stop-color="gray" stop-opacity="0"/>
      <stop offset="1" stop-color="gray"/>
    </radialGradient>
    <radialGradient id="b" cx="0" cy="0" r="1" gradientTransform="rotate(60 -187.046 699.2)scale(195.986 261.315)" gradientUnits="userSpaceOnUse">
      <stop stop-color="#00cbff"/>
      <stop offset="1" stop-color="#00cbff" stop-opacity="0"/>
    </radialGradient>
  </defs>
  <rect width="1024" height="1024" fill="#000" rx="266"/>
  <path
    fill="url(#a)"
    fill-opacity=".3"
    d="m346.933 180.87 177.804 307.97 355.611-.001v44.797l-355.608-.001-177.811 307.979-38.795-22.399 177.811-307.978-177.807-307.969z"
  />
  <path
    style="mix-blend-mode:exclusion"
    fill="url(#b)"
    d="M609.995 681.316c-124.985 72.161-270.179 54.668-324.299-39.071s3.327-228.227 128.313-300.387 270.178-54.667 324.298 39.072c54.12 93.738-3.327 228.226-128.312 300.386"
  />
  <path
    fill="silver"
    fill-rule="evenodd"
    clip-rule="evenodd"
    d="M320.919 178.466A67.16 67.16 0 0 1 353.574 170l316.855.013a67.2 67.2 0 0 1 58.194 33.603L886.998 477.97a67.2 67.2 0 0 1 8.967 35.775 68 68 0 0 1-.527 6.507 68 68 0 0 1-.703 4.306 67 67 0 0 1-1.909 7.425 67.568 67.568 0 0 1-2.77 7.219 67 67 0 0 1-3.059 5.965l-24.465 42.365a71 71 0 0 1-1.357 2.465l-132.55 229.577a69 69 0 0 1-3.637 5.633 67 67 0 0 1-7.928 9.155 66 66 0 0 1-4.084 3.626 67.332 67.332 0 0 1-13.764 8.708 67.2 67.2 0 0 1-16.609 5.365 67 67 0 0 1-7.698.961 67 67 0 0 1-4.478.148l-316.854-.013a68 68 0 0 1-5.59-.231 67.16 67.16 0 0 1-33.495-12.307 67.15 67.15 0 0 1-19.109-21.065L137.002 545.201a69 69 0 0 1-2.594-4.955 67.2 67.2 0 0 1 2.597-62.243l24.462-42.365q.65-1.238 1.359-2.465l132.549-229.576a67.15 67.15 0 0 1 25.544-25.131M221.05 533.973c-17.241 0-28.017 18.666-19.397 33.598l132.529 229.584a22.4 22.4 0 0 0 19.398 11.199l265.091.005c17.242 0 28.018-18.664 19.398-33.596L505.52 545.173a22.4 22.4 0 0 0-19.398-11.199zm494.616-263.189c-8.621-14.932-30.174-14.93-38.796.002L544.249 500.494a22.4 22.4 0 0 0 .067 22.274l132.537 229.561c8.621 14.93 30.171 14.931 38.793.001l132.561-229.566a22.4 22.4 0 0 0 .001-22.401zm-362.09-55.989a22.4 22.4 0 0 0-19.401 11.199L201.626 455.568c-8.621 14.932 2.156 33.598 19.398 33.599l265.104.001a22.4 22.4 0 0 0 19.315-11.061l.077-.137 132.542-229.561c8.619-14.932-2.156-33.595-19.396-33.596z"
  />
</svg>