<svg
  width="100%"
  height="100%"
  viewBox="0 0 512 456"
  xmlns="http://www.w3.org/2000/svg"
  fill="none"
>
  <defs>
    <radialGradient id="a" cx="0" cy="0" r="1" gradientTransform="rotate(120 63.067 187.146)scale(247.307)" gradientUnits="userSpaceOnUse">
      <stop offset=".154" stop-color="gray" stop-opacity="0"/>
      <stop offset="1" stop-color="gray"/>
    </radialGradient>
    <radialGradient id="b" cx="0" cy="0" r="1" gradientTransform="rotate(60 -69.214 335.565)scale(130.658 174.21)" gradientUnits="userSpaceOnUse">
      <stop stop-color="#00cbff"/>
      <stop offset="1" stop-color="#00cbff" stop-opacity="0"/>
    </radialGradient>
  </defs>
  <path
    fill="url(#a)"
    fill-opacity=".3"
    d="M145.956 7.247 264.492 212.56h237.073l.001 29.864H264.493l-118.54 205.319-25.864-14.933L238.63 227.492 120.092 22.179z"
  />
  <path
    style="mix-blend-mode:exclusion"
    fill="url(#b)"
    d="M321.33 340.877c-83.324 48.107-180.119 36.445-216.199-26.047s2.218-152.152 85.541-200.258c83.324-48.107 180.119-36.445 216.199 26.047s-2.218 152.151-85.541 200.258"
  />
  <path
    fill="silver"
    fill-rule="evenodd"
    clip-rule="evenodd"
    d="M128.613 5.644A44.77 44.77 0 0 1 150.383 0l211.236.009a44.8 44.8 0 0 1 38.796 22.402l105.583 182.902a44.8 44.8 0 0 1 5.417 15.173 45 45 0 0 1 .491 4.327 44.8 44.8 0 0 1-.492 10.126 43 43 0 0 1-.732 3.568 45 45 0 0 1-2.644 7.628 45 45 0 0 1-2.04 3.977l-16.31 28.242a47 47 0 0 1-.905 1.644l-88.366 153.051a48 48 0 0 1-1.578 2.536 45 45 0 0 1-7.198 8.318 45 45 0 0 1-10.833 7.228 44.8 44.8 0 0 1-14.725 4.094 45 45 0 0 1-4.465.222l-211.236-.009a44 44 0 0 1-3.726-.154 44.76 44.76 0 0 1-22.33-8.205 44.8 44.8 0 0 1-9.432-9.1 45 45 0 0 1-3.308-4.943L6.002 250.134a45 45 0 0 1-1.73-3.304 44.8 44.8 0 0 1 1.731-41.495l16.308-28.243q.435-.825.906-1.643l88.366-153.05a44.77 44.77 0 0 1 17.03-16.755M62.033 242.65c-11.494 0-18.678 12.443-12.931 22.398l88.353 153.056a14.93 14.93 0 0 0 12.932 7.467l176.727.003c11.495 0 18.679-12.443 12.932-22.398l-88.366-153.06a14.93 14.93 0 0 0-12.932-7.467H62.033ZM391.778 67.19c-5.748-9.954-20.117-9.953-25.864.002L277.499 220.33a14.93 14.93 0 0 0 .045 14.849l88.358 153.04c5.747 9.954 20.114 9.954 25.862.001l88.374-153.044a14.93 14.93 0 0 0 0-14.934zM150.384 29.864a14.94 14.94 0 0 0-12.934 7.465L49.084 190.38c-5.748 9.954 1.437 22.399 12.932 22.399l176.736.001a14.93 14.93 0 0 0 12.877-7.374l.051-.092 88.361-153.04c5.746-9.955-1.437-22.397-12.931-22.398z"
  />
</svg>